<svg id="Layer_1" data-name="Layer 1" xmlns="http://www.w3.org/2000/svg" xmlns:xlink="http://www.w3.org/1999/xlink" viewBox="0 0 246.45 246.35"><defs><style>.cls-1,.cls-8{fill:none;}.cls-2{fill:#fff;stroke-width:5px;}.cls-2,.cls-3,.cls-8{stroke:#231f20;stroke-miterlimit:10;}.cls-3{fill:url(#radial-gradient);}.cls-4{clip-path:url(#clip-path);}.cls-5{fill:#f29745;}.cls-6{clip-path:url(#clip-path-2);}.cls-7{fill:#22141f;}</style><radialGradient id="radial-gradient" cx="116.36" cy="117.89" r="102.37" gradientUnits="userSpaceOnUse"><stop offset="0.03" stop-color="#fff"/><stop offset="0.17" stop-color="#f7fbfb"/><stop offset="0.39" stop-color="#e2f2f1"/><stop offset="0.65" stop-color="#c0e1e0"/><stop offset="0.92" stop-color="#97cecb"/></radialGradient><clipPath id="clip-path" transform="translate(-48.33 -47.7)"><circle class="cls-1" cx="164.8" cy="166.22" r="102.37"/></clipPath><clipPath id="clip-path-2" transform="translate(-48.33 -47.7)"><circle class="cls-1" cx="164.69" cy="165.6" r="102.37"/></clipPath></defs><title>pulseLogo</title><circle class="cls-2" cx="116.36" cy="117.89" r="108"/><circle class="cls-3" cx="116.36" cy="117.89" r="102.37"/><g class="cls-4"><polygon class="cls-5" points="115.6 0 143.49 0 133.79 110.1 124.98 110.1 115.6 0"/><polygon class="cls-5" points="59.1 22.68 83.25 8.74 129.9 108.94 122.27 113.34 59.1 22.68"/><polygon class="cls-5" points="21.51 70.58 35.45 46.43 125.95 109.87 121.55 117.51 21.51 70.58"/><polygon class="cls-5" points="12.9 130.85 12.9 102.97 123 112.66 123 121.47 12.9 130.85"/><polygon class="cls-5" points="35.59 187.35 21.64 163.2 121.84 116.55 126.25 124.18 35.59 187.35"/><polygon class="cls-5" points="83.48 224.94 59.33 211 122.78 120.5 130.41 124.91 83.48 224.94"/><polygon class="cls-5" points="143.75 233.55 115.87 233.55 125.56 123.45 134.38 123.45 143.75 233.55"/><polygon class="cls-5" points="200.25 210.87 176.1 224.81 129.45 124.61 137.09 120.21 200.25 210.87"/><polygon class="cls-5" points="237.84 162.97 223.9 187.12 133.4 123.67 137.81 116.04 237.84 162.97"/><polygon class="cls-5" points="246.45 102.7 246.45 130.58 136.35 120.89 136.35 112.07 246.45 102.7"/><polygon class="cls-5" points="223.77 46.2 237.71 70.35 137.52 117 133.11 109.36 223.77 46.2"/><polygon class="cls-5" points="175.88 8.61 200.02 22.55 136.58 113.05 128.94 108.64 175.88 8.61"/></g><g class="cls-6"><path class="cls-7" d="M85.39,183.42s24.65-6.8,26.35-9.07,3.4-5.38,5.38-5.38,8.22,0,9.92-.57,4.25-4.53,6.23-4,20.68-7.09,21.82-9.35,6.51-1.42,7.65-2,7.36-4.25,11.61-4,6.52-7.37,9.07-7.37,15.87,5.67,23.8,16.43c0,0,3.4-2,9.35,4s22.1,4.25,28.62,7.08S281.45,178,288,181.15s-39.1,112.5-39.1,112.5l-193,.41s-8.59-89.53-7.44-91.64S85.39,183.42,85.39,183.42Z" transform="translate(-48.33 -47.7)"/></g><circle class="cls-8" cx="116.36" cy="117.89" r="102.37"/><path class="cls-7" d="M93.1,181.49l.07.08a.48.48,0,0,0,.59.34c.3,0,.51.07.56.31a1.26,1.26,0,0,1,0,.37l.08,0v.06c-.32.11-.65.22-1,.3s-.65.14-1,.22l.2-.47a1.22,1.22,0,0,0-.59-.2,4,4,0,0,0-.69,0s-.1.09-.14.14v0c-.21-.12-.42-.22-.63-.35a.34.34,0,0,1-.17-.42c.07-.23.17-.45.24-.67a1.54,1.54,0,0,0,0-.37,1.55,1.55,0,0,1,0-.21l.22.15a.91.91,0,0,0,.12-.22,15.43,15.43,0,0,0,.42-1.88,6.53,6.53,0,0,1,1-2.85,1.23,1.23,0,0,0,.11-.51c0-.19,0-.38,0-.56a1.58,1.58,0,0,1,.14-.36c0-.06.08-.13.06-.18a3.29,3.29,0,0,1,.12-1.25,2.63,2.63,0,0,0-.13-1.59,1.85,1.85,0,0,1-.09-.54c0-.16-.06-.32-.11-.55l-.79.33a.23.23,0,0,1-.2,0,.3.3,0,0,0-.39,0c-.13.07-.28.09-.33-.12,0,0,0,0,0,0-.47-.29-.43-.83-.6-1.27a5.4,5.4,0,0,1-.31-.88,2.61,2.61,0,0,0-.27-.77c-.16-.26-.32-.53-.49-.79a4.08,4.08,0,0,1-.24-.46l.63,3.07c.12.57.26,1.13.39,1.69,0,.17.11.34.14.52s0,.19-.08.2-.25.11-.34-.06a.88.88,0,0,1,0-.15c-.11-.42-.22-.84-.32-1.27-.18-.78-.4-1.57-.54-2.36-.11-.58-.11-1.18-.17-1.76a.35.35,0,0,0-.14-.22c-.13-.09-.29-.15-.43-.24a1.15,1.15,0,0,1-.58-1.16,1.22,1.22,0,0,1,.38-1,.35.35,0,0,0,0-.29,1.3,1.3,0,0,1,.32-1.15,2.46,2.46,0,0,1,1-.92,2,2,0,0,1,1.09-.2c.51.1.51.1.6.55a1.48,1.48,0,0,0,1-.35,1.15,1.15,0,0,1-.24-1.09,2.07,2.07,0,0,1,.67-1.21.91.91,0,0,1,.3-.13l.62-.25,0,.11a1.44,1.44,0,0,1,1.34.54.4.4,0,0,0-.09.56.91.91,0,0,1,.13.26.8.8,0,0,0,.34.48c.13.11.15.22,0,.35a1.59,1.59,0,0,0-.23.36c.23.08.18.31.21.49s-.09.17-.17.21a.49.49,0,0,0-.31.52c0,.05,0,.12,0,.15-.21.28,0,.47.14.67a4.5,4.5,0,0,1,.53.64c.17.35.36.59.79.49,0,0,.09,0,.14.08v.07h-.57l.33.24-.38.16c.13.25.43.19.63.34-.06.31-.36.15-.55.33,0,.16,0,.39,0,.62s.08.41.1.62.07.18.2.18a7.49,7.49,0,0,0,2.31-.26.63.63,0,0,0,.38-.31,2,2,0,0,1,.84-.93l.08.41c.34,0,.36.28.41.57s.14.59-.19.8c0,0,0,.1,0,.14.27,1,.55,2,.83,2.92s.47,1.66.7,2.49a2.6,2.6,0,0,0,.2.65,5.73,5.73,0,0,1,.49,1.5c.17.51.3,1,.45,1.56l.63,2.23a2.46,2.46,0,0,0,.14.38.16.16,0,0,0,.16,0c.16-.06.3-.14.45-.21a.4.4,0,0,1,.52.1.2.2,0,0,1,0,.18c-.2.29-.41.58-.63.86-.07.1-.15.23-.25.27-.26.1-.44.36-.77.34-.16,0-.34.16-.5.26s-.21.17-.34.28l.23.06v.07l-.28,0-.14,0-.25,0c-.38.07-.58-.08-.65-.47a3.9,3.9,0,0,0-.14-.59.52.52,0,0,0-.18-.21c-.2-.13-.2-.2,0-.34-.37-.39-.71-.79-1.1-1.14a5.19,5.19,0,0,1-1.68-2.55c-.13-.47-.16-.48-.61-.25s-.47.17-.75-.17-.52-.53-.82-.83c-.12.27-.24.5-.34.73s-.11.38-.38.36c-.06,0-.16.1-.19.18-.22.43-.4.87-.62,1.3-.39.77-.8,1.54-1.2,2.31-.14.29-.26.6-.39.9l.08,0,0-.15c.08.15.13.26.19.36s.08.1.12.1c.37,0,.35.31.45.53l-.39-.5c0,.09,0,.12,0,.13s.27.29.41.44Zm4.36-11.08c-.23.15-.23.15-.06.37s.15.21.12.26a3,3,0,0,1-.34.45,2.07,2.07,0,0,1-.24.17c.06.07.11.15.17.23s0,0,0,0c.16.29.3.59.48.88s.46.64.66,1a3.11,3.11,0,0,1,.62,1.47,2.26,2.26,0,0,0,.45,1.23c.31.43.55.91.86,1.34s.66.77,1,1.15c0,0,.08,0,.12,0s0,0,.05,0l-.11-.16,0,0c.06,0,.14,0,.17.06s.23.11.34,0a4.41,4.41,0,0,1,.51-.46c.23-.16.18-.34.11-.55-.13-.42-.26-.84-.38-1.27l-.93-3.28c-.15-.55-.32-1.1-.47-1.66-.08-.28-.14-.55-.21-.83s-.12-.49-.19-.74-.19-.55-.27-.83a1.65,1.65,0,0,0-.13-.47,3.09,3.09,0,0,1-.21-.71c-.06-.2-.12-.41-.18-.6a.3.3,0,0,0-.12-.13s-.08,0-.08.05c0,.2-.19.36-.1.58,0,0,0,.1,0,.15s-.11,0-.14-.07-.14-.26-.22-.39-.17-.28-.46-.13a.2.2,0,0,0-.08,0,8.57,8.57,0,0,1-2.39,1l.2.08c.06,0,.14.06.15.11.12.43.25.86.35,1.3,0,.2.13.21.31.19C97.15,170.14,97.33,170.12,97.46,170.41Zm-3.17,5.47-.05,0A7.05,7.05,0,0,0,92.75,179Zm-4.94-10.11c-.25,0-.33.36-.62.19l.65.58.06,0Zm12.88,13.3v.07h.47v-.08ZM102,179l0,.07.35-.29,0,0Z" transform="translate(-48.33 -47.7)"/></svg>